<svg xmlns="http://www.w3.org/2000/svg" xmlns:xlink="http://www.w3.org/1999/xlink" width="500" zoomAndPan="magnify" viewBox="0 0 375 374.999991" height="500" preserveAspectRatio="xMidYMid meet" version="1.0"><defs><clipPath id="8141d73939"><path d="M 0 0 L 368.300781 0 L 368.300781 375 L 0 375 Z M 0 0 " clip-rule="nonzero"/></clipPath><clipPath id="3c893c9858"><path d="M 214.207031 0 L 154.09375 0 C 132.554688 0 115.09375 17.460938 115.09375 39 L 115.09375 78.1875 C 115.09375 99.726562 97.632812 117.1875 76.09375 117.1875 L 39 117.1875 C 17.460938 117.1875 0 134.648438 0 156.1875 L 0 218.8125 C 0 240.351562 17.460938 257.8125 39 257.8125 L 76.09375 257.8125 C 97.632812 257.8125 115.09375 275.273438 115.09375 296.8125 L 115.09375 336 C 115.09375 357.539062 132.554688 375 154.09375 375 L 214.207031 375 C 235.746094 375 253.207031 357.539062 253.207031 336 L 253.207031 296.8125 C 253.207031 275.273438 270.667969 257.8125 292.207031 257.8125 L 329.300781 257.8125 C 350.839844 257.8125 368.300781 240.351562 368.300781 218.8125 L 368.300781 156.1875 C 368.300781 134.648438 350.839844 117.1875 329.300781 117.1875 L 292.207031 117.1875 C 270.667969 117.1875 253.207031 99.726562 253.207031 78.1875 L 253.207031 39 C 253.207031 17.460938 235.746094 0 214.207031 0 Z M 214.207031 0 " clip-rule="nonzero"/></clipPath><clipPath id="f12fdfa99d"><path d="M 0 0 L 368.300781 0 L 368.300781 375 L 0 375 Z M 0 0 " clip-rule="nonzero"/></clipPath><clipPath id="a76e6971f2"><path d="M 214.207031 0 L 154.09375 0 C 132.554688 0 115.09375 17.460938 115.09375 39 L 115.09375 78.1875 C 115.09375 99.726562 97.632812 117.1875 76.09375 117.1875 L 39 117.1875 C 17.460938 117.1875 0 134.648438 0 156.1875 L 0 218.8125 C 0 240.351562 17.460938 257.8125 39 257.8125 L 76.09375 257.8125 C 97.632812 257.8125 115.09375 275.273438 115.09375 296.8125 L 115.09375 336 C 115.09375 357.539062 132.554688 375 154.09375 375 L 214.207031 375 C 235.746094 375 253.207031 357.539062 253.207031 336 L 253.207031 296.8125 C 253.207031 275.273438 270.667969 257.8125 292.207031 257.8125 L 329.300781 257.8125 C 350.839844 257.8125 368.300781 240.351562 368.300781 218.8125 L 368.300781 156.1875 C 368.300781 134.648438 350.839844 117.1875 329.300781 117.1875 L 292.207031 117.1875 C 270.667969 117.1875 253.207031 99.726562 253.207031 78.1875 L 253.207031 39 C 253.207031 17.460938 235.746094 0 214.207031 0 Z M 214.207031 0 " clip-rule="nonzero"/></clipPath><linearGradient x1="-1.16394" gradientTransform="matrix(1.438677, 0, 0, 1.438677, -0.000167983, 0.000000000000021316)" y1="1.16406" x2="257.163943" gradientUnits="userSpaceOnUse" y2="259.491943" id="3255f8d421"><stop stop-opacity="1" stop-color="rgb(0%, 59.999084%, 96.859741%)" offset="0"/><stop stop-opacity="1" stop-color="rgb(0%, 59.844971%, 96.859741%)" offset="0.03125"/><stop stop-opacity="1" stop-color="rgb(0%, 59.539795%, 96.859741%)" offset="0.0625"/><stop stop-opacity="1" stop-color="rgb(0%, 59.233093%, 96.859741%)" offset="0.09375"/><stop stop-opacity="1" stop-color="rgb(0%, 58.926392%, 96.859741%)" offset="0.125"/><stop stop-opacity="1" stop-color="rgb(0%, 58.621216%, 96.859741%)" offset="0.15625"/><stop stop-opacity="1" stop-color="rgb(0%, 58.314514%, 96.859741%)" offset="0.1875"/><stop stop-opacity="1" stop-color="rgb(0%, 58.007812%, 96.859741%)" offset="0.21875"/><stop stop-opacity="1" stop-color="rgb(0%, 57.701111%, 96.859741%)" offset="0.25"/><stop stop-opacity="1" stop-color="rgb(0%, 57.395935%, 96.859741%)" offset="0.28125"/><stop stop-opacity="1" stop-color="rgb(0%, 57.089233%, 96.859741%)" offset="0.3125"/><stop stop-opacity="1" stop-color="rgb(0%, 56.782532%, 96.859741%)" offset="0.34375"/><stop stop-opacity="1" stop-color="rgb(0%, 56.477356%, 96.859741%)" offset="0.375"/><stop stop-opacity="1" stop-color="rgb(0%, 56.170654%, 96.859741%)" offset="0.40625"/><stop stop-opacity="1" stop-color="rgb(0%, 55.863953%, 96.859741%)" offset="0.4375"/><stop stop-opacity="1" stop-color="rgb(0%, 55.558777%, 96.859741%)" offset="0.46875"/><stop stop-opacity="1" stop-color="rgb(0%, 55.252075%, 96.859741%)" offset="0.495494"/><stop stop-opacity="1" stop-color="rgb(0%, 55.099487%, 96.859741%)" offset="0.5"/><stop stop-opacity="1" stop-color="rgb(0%, 54.945374%, 96.859741%)" offset="0.504506"/><stop stop-opacity="1" stop-color="rgb(0%, 54.792786%, 96.859741%)" offset="0.53125"/><stop stop-opacity="1" stop-color="rgb(0%, 54.638672%, 96.859741%)" offset="0.5625"/><stop stop-opacity="1" stop-color="rgb(0%, 54.333496%, 96.859741%)" offset="0.59375"/><stop stop-opacity="1" stop-color="rgb(0%, 54.026794%, 96.859741%)" offset="0.625"/><stop stop-opacity="1" stop-color="rgb(0%, 53.720093%, 96.859741%)" offset="0.65625"/><stop stop-opacity="1" stop-color="rgb(0%, 53.414917%, 96.859741%)" offset="0.6875"/><stop stop-opacity="1" stop-color="rgb(0%, 53.108215%, 96.859741%)" offset="0.71875"/><stop stop-opacity="1" stop-color="rgb(0%, 52.801514%, 96.859741%)" offset="0.75"/><stop stop-opacity="1" stop-color="rgb(0%, 52.496338%, 96.859741%)" offset="0.78125"/><stop stop-opacity="1" stop-color="rgb(0%, 52.189636%, 96.859741%)" offset="0.8125"/><stop stop-opacity="1" stop-color="rgb(0%, 51.882935%, 96.859741%)" offset="0.84375"/><stop stop-opacity="1" stop-color="rgb(0%, 51.576233%, 96.859741%)" offset="0.875"/><stop stop-opacity="1" stop-color="rgb(0%, 51.271057%, 96.859741%)" offset="0.90625"/><stop stop-opacity="1" stop-color="rgb(0%, 50.964355%, 96.859741%)" offset="0.9375"/><stop stop-opacity="1" stop-color="rgb(0%, 50.657654%, 96.859741%)" offset="0.96875"/><stop stop-opacity="1" stop-color="rgb(0%, 50.352478%, 96.859741%)" offset="1"/></linearGradient><clipPath id="143b0ef694"><rect x="0" width="369" y="0" height="375"/></clipPath><clipPath id="b038a8bf7b"><path d="M 137 124 L 273 124 L 273 271 L 137 271 Z M 137 124 " clip-rule="nonzero"/></clipPath><clipPath id="b997d4b3c6"><path d="M 129.757812 250.339844 L 248.949219 116.523438 L 280.667969 144.777344 L 161.476562 278.59375 Z M 129.757812 250.339844 " clip-rule="nonzero"/></clipPath><clipPath id="dcaaf03ee4"><path d="M 236.667969 130.3125 C 243.425781 122.726562 256 122.90625 264.761719 130.707031 C 273.519531 138.507812 275.144531 150.980469 268.390625 158.566406 L 173.707031 264.863281 C 166.953125 272.445312 154.375 272.269531 145.617188 264.464844 C 136.859375 256.664062 135.234375 244.191406 141.988281 236.609375 Z M 236.667969 130.3125 " clip-rule="nonzero"/></clipPath><clipPath id="11b6b2df14"><path d="M 0 0 L 136 0 L 136 147 L 0 147 Z M 0 0 " clip-rule="nonzero"/></clipPath><clipPath id="adedb78cf2"><path d="M -7.242188 126.339844 L 111.949219 -7.476562 L 143.667969 20.777344 L 24.476562 154.59375 Z M -7.242188 126.339844 " clip-rule="nonzero"/></clipPath><clipPath id="a405a87d78"><path d="M 99.667969 6.3125 C 106.425781 -1.273438 119 -1.09375 127.761719 6.707031 C 136.519531 14.507812 138.144531 26.980469 131.390625 34.566406 L 36.707031 140.863281 C 29.953125 148.445312 17.375 148.269531 8.617188 140.464844 C -0.140625 132.664062 -1.765625 120.191406 4.988281 112.609375 Z M 99.667969 6.3125 " clip-rule="nonzero"/></clipPath><clipPath id="9390876774"><rect x="0" width="136" y="0" height="147"/></clipPath><clipPath id="6dcdb29567"><path d="M 95 190 L 176 190 L 176 267 L 95 267 Z M 95 190 " clip-rule="nonzero"/></clipPath><clipPath id="6c01716ff9"><path d="M 115.273438 182.050781 L 183.96875 243.703125 L 156.375 274.449219 L 87.679688 212.792969 Z M 115.273438 182.050781 " clip-rule="nonzero"/></clipPath><clipPath id="1f7d0320ce"><path d="M 170.226562 231.371094 C 177.785156 238.15625 177.734375 250.535156 170.117188 259.027344 C 162.496094 267.515625 150.191406 268.898438 142.632812 262.113281 L 101.367188 225.078125 C 93.808594 218.292969 93.859375 205.910156 101.476562 197.421875 C 109.097656 188.929688 121.402344 187.546875 128.960938 194.332031 Z M 170.226562 231.371094 " clip-rule="nonzero"/></clipPath><clipPath id="b712a4e625"><path d="M 0 0 L 81 0 L 81 77 L 0 77 Z M 0 0 " clip-rule="nonzero"/></clipPath><clipPath id="1e2968991b"><path d="M 20.273438 -7.949219 L 88.96875 53.703125 L 61.375 84.449219 L -7.320312 22.792969 Z M 20.273438 -7.949219 " clip-rule="nonzero"/></clipPath><clipPath id="0f30b2732e"><path d="M 75.226562 41.371094 C 82.785156 48.15625 82.734375 60.535156 75.117188 69.027344 C 67.496094 77.515625 55.191406 78.898438 47.632812 72.113281 L 6.367188 35.078125 C -1.191406 28.292969 -1.140625 15.910156 6.476562 7.421875 C 14.097656 -1.070312 26.402344 -2.453125 33.960938 4.332031 Z M 75.226562 41.371094 " clip-rule="nonzero"/></clipPath><clipPath id="385fd1c15e"><rect x="0" width="81" y="0" height="77"/></clipPath></defs><g clip-path="url(#8141d73939)"><g clip-path="url(#3c893c9858)"><g transform="matrix(1, 0, 0, 1, 0, 0)"><g clip-path="url(#143b0ef694)"><g clip-path="url(#f12fdfa99d)"><g clip-path="url(#a76e6971f2)"><path fill="url(#3255f8d421)" d="M 0 0 L 0 375 L 368.300781 375 L 368.300781 0 Z M 0 0 " fill-rule="nonzero"/></g></g></g></g></g></g><g clip-path="url(#b038a8bf7b)"><g clip-path="url(#b997d4b3c6)"><g clip-path="url(#dcaaf03ee4)"><g transform="matrix(1, 0, 0, 1, 137, 124)"><g clip-path="url(#9390876774)"><g clip-path="url(#11b6b2df14)"><g clip-path="url(#adedb78cf2)"><g clip-path="url(#a405a87d78)"><path fill="#a4fdff" d="M -7.242188 126.339844 L 111.949219 -7.476562 L 143.667969 20.777344 L 24.476562 154.59375 Z M -7.242188 126.339844 " fill-opacity="1" fill-rule="nonzero"/></g></g></g></g></g></g></g></g><g clip-path="url(#6dcdb29567)"><g clip-path="url(#6c01716ff9)"><g clip-path="url(#1f7d0320ce)"><g transform="matrix(1, 0, 0, 1, 95, 190)"><g clip-path="url(#385fd1c15e)"><g clip-path="url(#b712a4e625)"><g clip-path="url(#1e2968991b)"><g clip-path="url(#0f30b2732e)"><path fill="#a4fdff" d="M 20.273438 -7.949219 L 88.96875 53.703125 L 61.375 84.449219 L -7.320312 22.792969 Z M 20.273438 -7.949219 " fill-opacity="1" fill-rule="nonzero"/></g></g></g></g></g></g></g></g></svg>